<?xml version="1.0" encoding="iso-8859-1"?><!-- Generator: Adobe Illustrator 20.0.0, SVG Export Plug-In . SVG Version: 6.00 Build 0)  --><svg xmlns="http://www.w3.org/2000/svg" xmlns:xlink="http://www.w3.org/1999/xlink" version="1.1" id="Layer_1" x="0px" y="0px" viewBox="0 0 40 40" style="enable-background:new 0 0 40 40;" xml:space="preserve" width="40" height="40">
<path style="fill:none;stroke:#7A4F34;stroke-linecap:round;stroke-miterlimit:10;" d="M21.117,6.543  c0-5.15-2.315-6.043-3.617-6.043"/>
<g>
	<path style="fill:#DCD5F2;" d="M20,38.5c-7.182,0-14.5-9.624-14.5-19.069C5.5,9.902,10.197,3.5,17.188,3.5   c1.792,0,3.274,1.052,3.289,1.063l0.269,0.194l0.284-0.172C21.048,4.574,22.827,3.5,24.169,3.5C28.935,3.5,34.5,7.582,34.5,19.086   C34.5,28.521,27.047,38.5,20,38.5z"/>
	<path style="fill:#8B75A1;" d="M24.169,4c3.069,0,5.519,1.464,7.282,4.352C33.095,11.045,34,14.857,34,19.086   C34,28.278,26.804,38,20,38c-6.935,0-14-9.371-14-18.569C6,10.201,10.496,4,17.188,4c1.621,0,2.984,0.959,2.995,0.967l0.539,0.392   l0.569-0.347C21.72,4.749,23.172,4,24.169,4 M24.169,3c-1.503,0-3.399,1.158-3.399,1.158S19.175,3,17.188,3   C9.957,3,5,9.49,5,19.431S12.751,39,20,39c7.249,0,15-9.973,15-19.914C35,10.521,31.422,3,24.169,3L24.169,3z"/>
</g>
<path style="fill:none;stroke:#8B75A1;stroke-linecap:round;stroke-linejoin:round;stroke-miterlimit:10;" d="M23.5,32.5  c0,0,3-4.65,3-13.5c0-6.524-3.977-15.5-9.313-15.5"/>
</svg>