<?xml version="1.0" encoding="iso-8859-1"?><!-- Generator: Adobe Illustrator 20.0.0, SVG Export Plug-In . SVG Version: 6.00 Build 0)  --><svg xmlns="http://www.w3.org/2000/svg" xmlns:xlink="http://www.w3.org/1999/xlink" version="1.1" id="Layer_1" x="0px" y="0px" viewBox="0 0 40 40" style="enable-background:new 0 0 40 40;" xml:space="preserve" width="40" height="40">
<g>
	<path style="fill:#CEE0A1;" d="M16.74,38.5c-5.646,0-10.963-2.135-15.029-6.023L32.477,1.711c8.133,8.51,8.016,22.05-0.35,30.416   C28.017,36.237,22.552,38.5,16.74,38.5z"/>
	<path style="fill:#5E9C76;" d="M32.464,2.43C36.042,6.353,38,11.396,38,16.74c0,5.679-2.211,11.018-6.227,15.033   C27.758,35.789,22.419,38,16.74,38c-5.344,0-10.387-1.958-14.31-5.536L32.464,2.43 M32.48,1L1,32.48   C5.347,36.827,11.043,39,16.74,39s11.394-2.173,15.74-6.52C41.173,23.787,41.173,9.693,32.48,1L32.48,1z"/>
</g>
<g>
	<path style="fill:#FFEEA3;" d="M16.74,35.6c-4.871,0-9.459-1.834-12.978-5.175L30.425,3.762C33.766,7.281,35.6,11.87,35.6,16.74   c0,5.038-1.962,9.773-5.524,13.335S21.778,35.6,16.74,35.6z"/>
	<g>
		<path style="fill:#BA9B48;" d="M30.41,4.484c6.462,7.199,6.233,18.317-0.688,25.238C26.255,33.19,21.644,35.1,16.74,35.1    c-4.569,0-8.884-1.658-12.256-4.689L30.41,4.484 M30.429,3.051L3.051,30.429c3.78,3.78,8.735,5.67,13.689,5.67    s9.909-1.89,13.689-5.67C37.99,22.869,37.99,10.611,30.429,3.051L30.429,3.051z"/>
	</g>
</g>
<g>
	<path style="fill:#F5CE85;" d="M26.574,8.406c0,0,5.62,8.636-1.952,16.207s-16.48,2.224-16.48,2.224L26.574,8.406z"/>
</g>
<g>
	<path style="fill:#967A44;" d="M21.864,21.934c-0.103,0.103-1.168-0.013-1.913-0.758c-0.745-0.745-0.898-2.142-0.773-2.266   c0.125-0.125,1.279,0.236,1.991,0.949S21.967,21.831,21.864,21.934z"/>
</g>
<g>
	<path style="fill:#967A44;" d="M23.733,19.871c-0.103,0.103-1.168-0.013-1.913-0.758s-0.898-2.142-0.773-2.266   c0.125-0.125,1.279,0.236,1.991,0.949S23.836,19.768,23.733,19.871z"/>
</g>
<g>
	<path style="fill:#967A44;" d="M25.74,17.045c-0.063,0.132-1.11,0.382-2.066-0.072c-0.956-0.453-1.572-1.723-1.497-1.883   c0.076-0.16,1.29-0.208,2.204,0.226C25.296,15.75,25.802,16.913,25.74,17.045z"/>
</g>
<g>
	<path style="fill:#967A44;" d="M26.677,14.172c-0.037,0.126-0.931,0.495-1.843,0.227s-1.638-1.308-1.593-1.46   c0.045-0.153,1.115-0.366,1.988-0.11C26.101,13.084,26.714,14.045,26.677,14.172z"/>
</g>
<g>
	<path style="fill:#967A44;" d="M19.871,23.733c0.103-0.103-0.013-1.168-0.758-1.913s-2.142-0.898-2.266-0.773   c-0.125,0.125,0.236,1.279,0.949,1.991S19.768,23.836,19.871,23.733z"/>
</g>
<g>
	<path style="fill:#967A44;" d="M16.949,25.495c0.133-0.06,0.398-1.099-0.037-2.057c-0.435-0.959-1.689-1.593-1.85-1.52   c-0.16,0.073-0.228,1.28,0.189,2.198C15.667,25.033,16.816,25.556,16.949,25.495z"/>
</g>
<g>
	<path style="fill:#967A44;" d="M14.172,26.677c0.126-0.037,0.495-0.931,0.227-1.843c-0.268-0.912-1.308-1.638-1.46-1.593   c-0.153,0.045-0.366,1.115-0.11,1.988C13.084,26.101,14.045,26.714,14.172,26.677z"/>
</g>
</svg>