<?xml version="1.0" encoding="iso-8859-1"?><!-- Generator: Adobe Illustrator 20.0.0, SVG Export Plug-In . SVG Version: 6.00 Build 0)  --><svg xmlns="http://www.w3.org/2000/svg" xmlns:xlink="http://www.w3.org/1999/xlink" version="1.1" id="Layer_1" x="0px" y="0px" viewBox="0 0 40 40" style="enable-background:new 0 0 40 40;" xml:space="preserve" width="40" height="40">
<g>
	<path style="fill:#BAE0BD;" d="M19.473,7.479c-0.981-0.068-3.144-0.357-4.369-1.583c-1.228-1.228-1.516-3.381-1.583-4.369   c1,0.08,3.188,0.389,4.376,1.576C19.083,4.291,19.393,6.479,19.473,7.479z"/>
	<g>
		<path style="fill:#5E9C76;" d="M14.075,2.085c1.112,0.15,2.625,0.529,3.468,1.372c0.838,0.838,1.218,2.353,1.37,3.467    c-1.023-0.128-2.543-0.469-3.456-1.381C14.543,4.629,14.202,3.11,14.075,2.085 M13,1c0,0-0.045,3.455,1.75,5.25    C16.46,7.96,19.677,8,19.977,8C19.992,8,20,8,20,8s-0.017-3.517-1.75-5.25C16.517,1.017,13,1,13,1L13,1z"/>
	</g>
</g>
<path style="fill:none;stroke:#7A4F34;stroke-linecap:round;stroke-miterlimit:10;" d="M22.5,0.5c0,0-4.105,2.962-2.026,9.745"/>
<g>
	<g>
		<path style="fill:#FFEEA3;" d="M20,38.5c-7.444,0-13.5-5.159-13.5-11.5c0-3.495,1.843-6.761,5.057-8.962l0.178-0.122l0.034-0.212    C12.727,11.696,16.111,7.5,20,7.5s7.273,4.196,8.231,10.204l0.034,0.212l0.178,0.122C31.657,20.239,33.5,23.505,33.5,27    C33.5,33.341,27.444,38.5,20,38.5z"/>
	</g>
	<g>
		<path style="fill:#BA9B48;" d="M20,8c3.58,0,6.834,4.114,7.738,9.783l0.068,0.425l0.355,0.243C31.236,20.556,33,23.672,33,27    c0,6.065-5.832,11-13,11S7,33.065,7,27c0-3.328,1.764-6.444,4.839-8.55l0.355-0.243l0.068-0.425C13.166,12.114,16.42,8,20,8 M20,7    c-4.221,0-7.753,4.527-8.726,10.625C8.063,19.824,6,23.203,6,27c0,6.627,6.268,12,14,12s14-5.373,14-12    c0-3.797-2.063-7.176-5.274-9.375C27.753,11.527,24.221,7,20,7L20,7z"/>
	</g>
</g>
<g>
	<circle style="fill:#BA9B48;" cx="26.5" cy="27.5" r="0.5"/>
</g>
<g>
	<circle style="fill:#BA9B48;" cx="24.5" cy="29.5" r="0.5"/>
</g>
<g>
	<circle style="fill:#BA9B48;" cx="27.5" cy="30.5" r="0.5"/>
</g>
</svg>