<?xml version="1.0" encoding="iso-8859-1"?><!-- Generator: Adobe Illustrator 20.0.0, SVG Export Plug-In . SVG Version: 6.00 Build 0)  --><svg xmlns="http://www.w3.org/2000/svg" xmlns:xlink="http://www.w3.org/1999/xlink" version="1.1" id="Layer_1" x="0px" y="0px" viewBox="0 0 40 40" style="enable-background:new 0 0 40 40;" xml:space="preserve" width="40" height="40">
<g>
	<g>
		<path style="fill:#FFDED1;" d="M20,38.5C9.799,38.5,1.5,31.098,1.5,22c0-7.218,5.412-13.713,13.161-15.794l0.381-0.103    l-0.011-0.395c-0.023-0.843-0.183-1.55-0.476-2.116c0.937,0.214,1.764,0.623,2.471,1.22l0.929,0.786l-0.108-1.212    c-0.062-0.685-0.21-1.396-0.443-2.124c0.589,0.278,1.131,0.676,1.62,1.19l0.599,0.628l0.243-0.833    c0.29-0.989,0.722-1.829,1.288-2.505c0.689,0.831,1.179,1.876,1.456,3.116l0.15,0.669l0.592-0.348    c0.522-0.308,1.096-0.523,1.713-0.644C24.809,4.06,24.68,4.779,24.83,5.765l0.049,0.326l0.319,0.083    C33.03,8.217,38.5,14.725,38.5,22C38.5,31.098,30.201,38.5,20,38.5z"/>
	</g>
	<g>
		<path style="fill:#C74343;" d="M21.153,1.584c0.439,0.673,0.764,1.471,0.969,2.384l0.301,1.339l1.182-0.696    c0.231-0.136,0.47-0.252,0.718-0.347c-0.073,0.444-0.08,0.966,0.012,1.576l0.099,0.652l0.638,0.166C32.684,8.643,38,14.953,38,22    c0,8.822-8.075,16-18,16S2,30.822,2,22C2,15.008,7.26,8.712,14.79,6.688l0.762-0.205l-0.022-0.788    c-0.013-0.478-0.067-0.918-0.161-1.319c0.487,0.205,0.932,0.478,1.333,0.817l1.857,1.57l-0.215-2.422    c-0.028-0.32-0.075-0.644-0.139-0.974c0.157,0.131,0.309,0.274,0.456,0.428l1.196,1.257l0.488-1.665    C20.545,2.708,20.815,2.104,21.153,1.584 M21.156,0.001c-0.914,0.902-1.452,2.019-1.77,3.106    c-0.709-0.745-1.629-1.382-2.819-1.667c0.487,1.164,0.708,2.162,0.781,2.99c-0.914-0.772-2.211-1.42-4.025-1.506    c0.897,0.6,1.178,1.711,1.208,2.798C6.705,7.825,1,14.313,1,22c0,9.389,8.507,17,19,17s19-7.611,19-17    c0-7.734-5.777-14.249-13.676-16.311c-0.162-1.067-0.032-2.188,0.975-2.77c-1.33,0-2.375,0.342-3.201,0.829    C22.814,2.486,22.253,1.108,21.156,0.001L21.156,0.001z"/>
	</g>
</g>
<g>
	<path style="fill:#F78F8F;" d="M24.211,34.5c-1.562,0-3.04-0.548-4.017-0.96L20,33.457l-0.194,0.083   c-0.977,0.412-2.455,0.96-4.017,0.96C9.564,34.5,4.5,28.893,4.5,22S9.564,9.5,15.789,9.5c1.562,0,3.04,0.548,4.017,0.96L20,10.543   l0.194-0.083c0.977-0.412,2.455-0.96,4.017-0.96C30.436,9.5,35.5,15.107,35.5,22S30.436,34.5,24.211,34.5z"/>
	<g>
		<path style="fill:#C74343;" d="M24.211,10C30.16,10,35,15.383,35,22s-4.84,12-10.789,12c-1.119,0-2.333-0.293-3.821-0.921    L20,32.914l-0.389,0.164C18.123,33.707,16.909,34,15.789,34C9.84,34,5,28.617,5,22s4.84-12,10.789-12    c1.119,0,2.334,0.293,3.821,0.921L20,11.086l0.389-0.164C21.877,10.293,23.091,10,24.211,10 M24.211,9    C22.725,9,21.309,9.447,20,10c-1.309-0.553-2.725-1-4.211-1C9.278,9,4,14.82,4,22c0,7.18,5.278,13,11.789,13    c1.486,0,2.901-0.447,4.211-1c1.309,0.553,2.725,1,4.211,1C30.722,35,36,29.18,36,22C36,14.82,30.722,9,24.211,9L24.211,9z"/>
	</g>
</g>
<g>
	<circle style="fill:#C74343;" cx="20" cy="13" r="1"/>
</g>
<g>
	<circle style="fill:#C74343;" cx="20" cy="16" r="1"/>
</g>
<g>
	<circle style="fill:#C74343;" cx="20" cy="19" r="1"/>
</g>
<g>
	<circle style="fill:#C74343;" cx="20" cy="22" r="1"/>
</g>
<g>
	<circle style="fill:#C74343;" cx="20" cy="25" r="1"/>
</g>
<g>
	<circle style="fill:#C74343;" cx="20" cy="28" r="1"/>
</g>
<g>
	<circle style="fill:#C74343;" cx="20" cy="31" r="1"/>
</g>
<g>
	<circle style="fill:#C74343;" cx="26" cy="13" r="1"/>
</g>
<g>
	<path style="fill:#C74343;" d="M26,11c-0.552,0-1-0.448-1-1s0.448-0.585,1-0.585S27,9.448,27,10S26.552,11,26,11z"/>
</g>
<g>
	<circle style="fill:#C74343;" cx="26" cy="16" r="1"/>
</g>
<g>
	<circle style="fill:#C74343;" cx="26" cy="19" r="1"/>
</g>
<g>
	<circle style="fill:#C74343;" cx="26" cy="22" r="1"/>
</g>
<g>
	<circle style="fill:#C74343;" cx="26" cy="25" r="1"/>
</g>
<g>
	<circle style="fill:#C74343;" cx="26" cy="28" r="1"/>
</g>
<g>
	<circle style="fill:#C74343;" cx="26" cy="31" r="1"/>
</g>
<g>
	<circle style="fill:#C74343;" cx="29" cy="14" r="1"/>
</g>
<g>
	<circle style="fill:#C74343;" cx="29" cy="17" r="1"/>
</g>
<g>
	<circle style="fill:#C74343;" cx="29" cy="20" r="1"/>
</g>
<g>
	<circle style="fill:#C74343;" cx="29" cy="23" r="1"/>
</g>
<g>
	<circle style="fill:#C74343;" cx="29" cy="26" r="1"/>
</g>
<g>
	<circle style="fill:#C74343;" cx="29" cy="29" r="1"/>
</g>
<g>
	<circle style="fill:#C74343;" cx="29" cy="32" r="1"/>
</g>
<g>
	<circle style="fill:#C74343;" cx="23" cy="32" r="1"/>
</g>
<g>
	<path style="fill:#C74343;" d="M26,34.58c-0.552,0-1-0.028-1-0.58s0.448-1,1-1s1,0.448,1,1S26.552,34.58,26,34.58z"/>
</g>
<g>
	<circle style="fill:#C74343;" cx="32" cy="16" r="1"/>
</g>
<g>
	<circle style="fill:#C74343;" cx="32" cy="19" r="1"/>
</g>
<g>
	<circle style="fill:#C74343;" cx="32" cy="22" r="1"/>
</g>
<g>
	<circle style="fill:#C74343;" cx="32" cy="25" r="1"/>
</g>
<g>
	<circle style="fill:#C74343;" cx="32" cy="28" r="1"/>
</g>
<g>
	<path style="fill:#C74343;" d="M35,21c-0.552,0-1-0.448-1-1s0.448-1,1-1s0.652,0.448,0.652,1S35.552,21,35,21z"/>
</g>
<g>
	<path style="fill:#C74343;" d="M35,24c-0.552,0-1-0.448-1-1s0.448-1,1-1s0.652,0.448,0.652,1S35.552,24,35,24z"/>
</g>
<g>
	<circle style="fill:#C74343;" cx="23" cy="29" r="1"/>
</g>
<g>
	<circle style="fill:#C74343;" cx="23" cy="26" r="1"/>
</g>
<g>
	<circle style="fill:#C74343;" cx="23" cy="23" r="1"/>
</g>
<g>
	<circle style="fill:#C74343;" cx="23" cy="20" r="1"/>
</g>
<g>
	<circle style="fill:#C74343;" cx="23" cy="17" r="1"/>
</g>
<g>
	<circle style="fill:#C74343;" cx="23" cy="14" r="1"/>
</g>
<g>
	<circle style="fill:#C74343;" cx="23" cy="11" r="1"/>
</g>
<g>
	<circle style="fill:#C74343;" cx="14" cy="13" r="1"/>
</g>
<g>
	<path style="fill:#C74343;" d="M14,11c0.552,0,1-0.448,1-1s-0.448-0.585-1-0.585S13,9.448,13,10S13.448,11,14,11z"/>
</g>
<g>
	<circle style="fill:#C74343;" cx="14" cy="16" r="1"/>
</g>
<g>
	<circle style="fill:#C74343;" cx="14" cy="19" r="1"/>
</g>
<g>
	<circle style="fill:#C74343;" cx="14" cy="22" r="1"/>
</g>
<g>
	<circle style="fill:#C74343;" cx="14" cy="25" r="1"/>
</g>
<g>
	<circle style="fill:#C74343;" cx="14" cy="28" r="1"/>
</g>
<g>
	<circle style="fill:#C74343;" cx="14" cy="31" r="1"/>
</g>
<g>
	<circle style="fill:#C74343;" cx="11" cy="14" r="1"/>
</g>
<g>
	<circle style="fill:#C74343;" cx="11" cy="17" r="1"/>
</g>
<g>
	<circle style="fill:#C74343;" cx="11" cy="20" r="1"/>
</g>
<g>
	<circle style="fill:#C74343;" cx="11" cy="23" r="1"/>
</g>
<g>
	<circle style="fill:#C74343;" cx="11" cy="26" r="1"/>
</g>
<g>
	<circle style="fill:#C74343;" cx="11" cy="29" r="1"/>
</g>
<g>
	<circle style="fill:#C74343;" cx="11" cy="32" r="1"/>
</g>
<g>
	<circle style="fill:#C74343;" cx="17" cy="32" r="1"/>
</g>
<g>
	<path style="fill:#C74343;" d="M14,34.58c0.552,0,1-0.028,1-0.58s-0.448-1-1-1s-1,0.448-1,1S13.448,34.58,14,34.58z"/>
</g>
<g>
	<circle style="fill:#C74343;" cx="8" cy="16" r="1"/>
</g>
<g>
	<circle style="fill:#C74343;" cx="8" cy="19" r="1"/>
</g>
<g>
	<circle style="fill:#C74343;" cx="8" cy="22" r="1"/>
</g>
<g>
	<circle style="fill:#C74343;" cx="8" cy="25" r="1"/>
</g>
<g>
	<circle style="fill:#C74343;" cx="8" cy="28" r="1"/>
</g>
<g>
	<path style="fill:#C74343;" d="M5,21c0.552,0,1-0.448,1-1s-0.448-1-1-1s-0.652,0.448-0.652,1S4.448,21,5,21z"/>
</g>
<g>
	<path style="fill:#C74343;" d="M5,24c0.552,0,1-0.448,1-1s-0.448-1-1-1s-0.652,0.448-0.652,1S4.448,24,5,24z"/>
</g>
<g>
	<circle style="fill:#C74343;" cx="17" cy="29" r="1"/>
</g>
<g>
	<circle style="fill:#C74343;" cx="17" cy="26" r="1"/>
</g>
<g>
	<circle style="fill:#C74343;" cx="17" cy="23" r="1"/>
</g>
<g>
	<circle style="fill:#C74343;" cx="17" cy="20" r="1"/>
</g>
<g>
	<circle style="fill:#C74343;" cx="17" cy="17" r="1"/>
</g>
<g>
	<circle style="fill:#C74343;" cx="17" cy="14" r="1"/>
</g>
<g>
	<circle style="fill:#C74343;" cx="17" cy="11" r="1"/>
</g>
</svg>