<?xml version="1.0" encoding="iso-8859-1"?><!-- Generator: Adobe Illustrator 20.0.0, SVG Export Plug-In . SVG Version: 6.00 Build 0)  --><svg xmlns="http://www.w3.org/2000/svg" xmlns:xlink="http://www.w3.org/1999/xlink" version="1.1" id="Layer_1" x="0px" y="0px" viewBox="0 0 40 40" style="enable-background:new 0 0 40 40;" xml:space="preserve" width="40" height="40">
<g>
	<path style="fill:#BAE0BD;" d="M16.74,38.5c-5.646,0-10.963-2.136-15.029-6.023L32.477,1.711c8.132,8.511,8.016,22.05-0.35,30.416   C28.017,36.236,22.553,38.5,16.74,38.5z"/>
	<g>
		<path style="fill:#5E9C76;" d="M32.464,2.431c7.592,8.333,7.362,21.29-0.691,29.342C27.758,35.789,22.419,38,16.74,38    c-5.344,0-10.387-1.958-14.31-5.536L32.464,2.431 M32.48,1L1,32.48C5.346,36.827,11.043,39,16.74,39s11.394-2.173,15.74-6.52    C41.173,23.787,41.173,9.693,32.48,1L32.48,1z"/>
	</g>
</g>
<g>
	<path style="fill:#F78F8F;" d="M16.74,35.356c-4.806,0-9.333-1.809-12.806-5.104L30.253,3.935   c6.907,7.284,6.791,18.829-0.349,25.97C26.388,33.42,21.713,35.356,16.74,35.356z"/>
	<g>
		<path style="fill:#C74343;" d="M30.238,4.656c6.368,7.104,6.139,18.068-0.688,24.894c-3.422,3.422-7.971,5.306-12.81,5.306    c-4.504,0-8.758-1.633-12.084-4.618L30.238,4.656 M30.258,3.223L3.223,30.258c3.733,3.733,8.625,5.599,13.517,5.599    s9.785-1.866,13.517-5.599C37.723,22.792,37.723,10.688,30.258,3.223L30.258,3.223z"/>
	</g>
</g>
<path style="fill:#36404D;" d="M16.818,30.159c-0.136,0-0.761-0.779-0.761-1.76s0.819-2.002,0.984-2.002  c0.164,0,0.687,0.998,0.687,1.937S16.954,30.159,16.818,30.159z"/>
<path style="fill:#36404D;" d="M30.154,16.972c0,0.136-0.779,0.761-1.76,0.761s-2.002-0.819-2.002-0.984  c0-0.164,0.998-0.687,1.937-0.687S30.154,16.836,30.154,16.972z"/>
<path style="fill:#36404D;" d="M26.217,26.327c-0.096,0.096-1.089-0.013-1.782-0.706c-0.694-0.694-0.837-1.995-0.72-2.111  s1.192,0.22,1.855,0.884C26.234,25.057,26.313,26.231,26.217,26.327z"/>
<path style="fill:#36404D;" d="M21.899,29.178c-0.125,0.052-1.001-0.428-1.376-1.335s-0.009-2.164,0.142-2.226  c0.152-0.063,1.017,0.66,1.376,1.527C22.4,28.011,22.024,29.126,21.899,29.178z"/>
<path style="fill:#36404D;" d="M29.173,11.891c0.052,0.125-0.428,1.001-1.335,1.376c-0.906,0.375-2.164,0.009-2.226-0.142  s0.66-1.017,1.527-1.376C28.006,11.39,29.121,11.766,29.173,11.891z"/>
<path style="fill:#36404D;" d="M11.749,29.121c-0.125-0.052-0.405-1.011-0.03-1.917c0.375-0.906,1.523-1.536,1.675-1.474  c0.152,0.063,0.252,1.185-0.107,2.052S11.875,29.173,11.749,29.121z"/>
<path style="fill:#36404D;" d="M29.116,22.041c-0.052,0.125-1.011,0.405-1.917,0.03c-0.906-0.375-1.536-1.523-1.474-1.675  c0.063-0.152,1.185-0.252,2.052,0.107S29.168,21.915,29.116,22.041z"/>
</svg>