<?xml version="1.0" encoding="iso-8859-1"?><!-- Generator: Adobe Illustrator 20.0.0, SVG Export Plug-In . SVG Version: 6.00 Build 0)  --><svg xmlns="http://www.w3.org/2000/svg" xmlns:xlink="http://www.w3.org/1999/xlink" version="1.1" id="Layer_1" x="0px" y="0px" viewBox="0 0 40 40" style="enable-background:new 0 0 40 40;" xml:space="preserve" width="40" height="40">
<g>
	<path style="fill:#BAE0BD;" d="M19.476,9.483c-1.186-0.068-4.192-0.407-5.873-2.086c-1.683-1.683-2.02-4.673-2.087-5.873   c1.213,0.083,4.252,0.453,5.88,2.08C19.023,5.23,19.393,8.27,19.476,9.483z"/>
	<g>
		<path style="fill:#5E9C76;" d="M12.06,2.073c1.357,0.146,3.682,0.583,4.983,1.884c1.301,1.301,1.737,3.625,1.884,4.982    c-1.335-0.133-3.628-0.555-4.969-1.896C12.613,5.699,12.192,3.412,12.06,2.073 M11,1c0,0-0.057,4.443,2.25,6.75    C15.448,9.948,19.584,10,19.971,10C19.99,10,20,10,20,10s-0.022-4.522-2.25-6.75C15.522,1.022,11,1,11,1L11,1z"/>
	</g>
</g>
<path style="fill:none;stroke:#7A4F34;stroke-linecap:round;stroke-miterlimit:10;" d="M22.5,0.5c0,0-4.171,3.636-2.481,10.29"/>
<g>
	<g>
		<path style="fill:#F78F8F;" d="M22.769,38.5c-1.005,0-1.801-0.277-2.435-0.848L20,37.351l-0.334,0.301    c-0.633,0.57-1.429,0.848-2.435,0.848C12.318,38.5,2.5,30.596,2.5,20.217C2.5,11.868,7.821,7.5,13.077,7.5    c2.701,0,4.962,0.989,6.541,2.86L20,10.813l0.382-0.453c1.578-1.871,3.84-2.86,6.541-2.86c5.256,0,10.577,4.368,10.577,12.717    C37.5,30.596,27.682,38.5,22.769,38.5z"/>
	</g>
	<g>
		<path style="fill:#C74343;" d="M26.923,8C31.931,8,37,12.197,37,20.217C37,30.312,27.516,38,22.769,38    c-0.888,0-1.556-0.228-2.1-0.719L20,36.678l-0.67,0.604c-0.544,0.49-1.211,0.719-2.1,0.719C12.484,38,3,30.312,3,20.217    C3,12.197,8.069,8,13.077,8c2.549,0,4.678,0.928,6.159,2.682L20,11.588l0.764-0.906C22.245,8.928,24.375,8,26.923,8 M26.923,7    C24.209,7,21.759,7.952,20,10.037C18.241,7.952,15.791,7,13.077,7C7.724,7,2,11.381,2,20.217C2,30.723,11.878,39,17.231,39    c1.14,0,2.044-0.322,2.769-0.976C20.725,38.678,21.629,39,22.769,39C28.122,39,38,30.675,38,20.217C38,11.381,32.276,7,26.923,7    L26.923,7z"/>
	</g>
</g>
<path style="fill:#FFF7D1;" d="M26.923,8C23.828,8,21.608,9.256,20,11.564v25.111C20.938,37.619,21.559,38,22.769,38  C27.516,38,37,30.312,37,20.217C37,12.197,31.931,8,26.923,8z"/>
<path style="fill:#A6714E;" d="M25,21.34c0,1.139-1,2.68-1,2.68s-1-1.44-1-2.68C23,20.6,23.448,20,24,20S25,20.6,25,21.34z"/>
</svg>