<?xml version="1.0" encoding="iso-8859-1"?><!-- Generator: Adobe Illustrator 20.0.0, SVG Export Plug-In . SVG Version: 6.00 Build 0)  --><svg xmlns="http://www.w3.org/2000/svg" xmlns:xlink="http://www.w3.org/1999/xlink" version="1.1" id="Layer_1" x="0px" y="0px" viewBox="0 0 40 40" style="enable-background:new 0 0 40 40;" xml:space="preserve" width="40" height="40">
<g>
	<ellipse style="fill:#F78F8F;" cx="14" cy="33.625" rx="4.5" ry="3.875"/>
	<path style="fill:#C74343;" d="M14,30.25c2.206,0,4,1.514,4,3.375S16.206,37,14,37s-4-1.514-4-3.375S11.794,30.25,14,30.25    M14,29.25c-2.761,0-5,1.959-5,4.375C9,36.041,11.239,38,14,38s5-1.959,5-4.375C19,31.209,16.761,29.25,14,29.25L14,29.25z"/>
</g>
<g>
	<ellipse style="fill:#F78F8F;" cx="26" cy="33.625" rx="4.5" ry="3.875"/>
	<path style="fill:#C74343;" d="M26,30.25c2.206,0,4,1.514,4,3.375S28.206,37,26,37s-4-1.514-4-3.375S23.794,30.25,26,30.25    M26,29.25c-2.761,0-5,1.959-5,4.375C21,36.041,23.239,38,26,38s5-1.959,5-4.375C31,31.209,28.761,29.25,26,29.25L26,29.25z"/>
</g>
<g>
	<ellipse style="fill:#F78F8F;" cx="20" cy="34.625" rx="4.5" ry="3.875"/>
	<path style="fill:#C74343;" d="M20,31.25c2.206,0,4,1.514,4,3.375S22.206,38,20,38s-4-1.514-4-3.375S17.794,31.25,20,31.25    M20,30.25c-2.761,0-5,1.959-5,4.375C15,37.041,17.239,39,20,39s5-1.959,5-4.375C25,32.209,22.761,30.25,20,30.25L20,30.25z"/>
</g>
<g>
	<ellipse style="fill:#F78F8F;" cx="28.5" cy="29" rx="5" ry="4.5"/>
	<path style="fill:#C74343;" d="M28.5,25c2.481,0,4.5,1.794,4.5,4s-2.019,4-4.5,4S24,31.206,24,29S26.019,25,28.5,25 M28.5,24   c-3.038,0-5.5,2.239-5.5,5s2.462,5,5.5,5s5.5-2.239,5.5-5S31.538,24,28.5,24L28.5,24z"/>
</g>
<g>
	<ellipse style="fill:#F78F8F;" cx="11.5" cy="29" rx="5" ry="4.5"/>
	<path style="fill:#C74343;" d="M11.5,25c2.481,0,4.5,1.794,4.5,4s-2.019,4-4.5,4S7,31.206,7,29S9.019,25,11.5,25 M11.5,24   C8.462,24,6,26.239,6,29s2.462,5,5.5,5s5.5-2.239,5.5-5S14.538,24,11.5,24L11.5,24z"/>
</g>
<g>
	<ellipse style="fill:#F78F8F;" cx="16.5" cy="29" rx="5" ry="4.5"/>
	<path style="fill:#C74343;" d="M16.5,25c2.481,0,4.5,1.794,4.5,4s-2.019,4-4.5,4S12,31.206,12,29S14.019,25,16.5,25 M16.5,24   c-3.038,0-5.5,2.239-5.5,5s2.462,5,5.5,5s5.5-2.239,5.5-5S19.538,24,16.5,24L16.5,24z"/>
</g>
<g>
	<ellipse style="fill:#F78F8F;" cx="22.5" cy="29" rx="5" ry="4.5"/>
	<path style="fill:#C74343;" d="M22.5,25c2.481,0,4.5,1.794,4.5,4s-2.019,4-4.5,4S18,31.206,18,29S20.019,25,22.5,25 M22.5,24   c-3.038,0-5.5,2.239-5.5,5s2.462,5,5.5,5s5.5-2.239,5.5-5S25.538,24,22.5,24L22.5,24z"/>
</g>
<g>
	<ellipse style="fill:#F78F8F;" cx="30.5" cy="22" rx="5" ry="4.5"/>
	<path style="fill:#C74343;" d="M30.5,18c2.481,0,4.5,1.794,4.5,4s-2.019,4-4.5,4S26,24.206,26,22S28.019,18,30.5,18 M30.5,17   c-3.038,0-5.5,2.239-5.5,5s2.462,5,5.5,5s5.5-2.239,5.5-5S33.538,17,30.5,17L30.5,17z"/>
</g>
<g>
	<ellipse style="fill:#F78F8F;" cx="9.5" cy="22" rx="5" ry="4.5"/>
	<path style="fill:#C74343;" d="M9.5,18c2.481,0,4.5,1.794,4.5,4s-2.019,4-4.5,4S5,24.206,5,22S7.019,18,9.5,18 M9.5,17   C6.462,17,4,19.239,4,22s2.462,5,5.5,5s5.5-2.239,5.5-5S12.538,17,9.5,17L9.5,17z"/>
</g>
<g>
	<ellipse style="fill:#F78F8F;" cx="15.5" cy="22" rx="5" ry="4.5"/>
	<path style="fill:#C74343;" d="M15.5,18c2.481,0,4.5,1.794,4.5,4s-2.019,4-4.5,4S11,24.206,11,22S13.019,18,15.5,18 M15.5,17   c-3.038,0-5.5,2.239-5.5,5s2.462,5,5.5,5s5.5-2.239,5.5-5S18.538,17,15.5,17L15.5,17z"/>
</g>
<g>
	<ellipse style="fill:#F78F8F;" cx="23.5" cy="22" rx="5" ry="4.5"/>
	<path style="fill:#C74343;" d="M23.5,18c2.481,0,4.5,1.794,4.5,4s-2.019,4-4.5,4S19,24.206,19,22S21.019,18,23.5,18 M23.5,17   c-3.038,0-5.5,2.239-5.5,5s2.462,5,5.5,5s5.5-2.239,5.5-5S26.538,17,23.5,17L23.5,17z"/>
</g>
<g>
	<path style="fill:#BAE0BD;" d="M28.966,14.396c-1.446-0.042-4.547-0.434-5.132-1.895c-0.398-0.993,0.401-2.496,2.313-4.352   c1.619-0.214,4.954-0.706,7.115-1.363C32.483,8.85,30.104,12.667,28.966,14.396z"/>
	<path style="fill:#5E9C76;" d="M32.394,7.545c-0.87,1.832-2.476,4.481-3.692,6.343c-1.748-0.085-4.007-0.582-4.404-1.572   c-0.144-0.359-0.217-1.426,2.08-3.692C28.027,8.403,30.446,8.032,32.394,7.545 M34,6c-2.141,0.882-6.928,1.526-8.081,1.676   c-7.534,7.2,3.159,7.225,3.311,7.225c0.001,0,0.002,0,0.002,0S33.715,8.163,34,6L34,6z"/>
</g>
<g>
	<path style="fill:#BAE0BD;" d="M17.14,13.905c-3.339-0.129-7.689-0.555-8.408-1.222C7.566,11.6,5.665,9.214,4.747,6.701   c3.387,0.767,7.185,0.831,8.342,0.831l0.156-0.001L17.14,13.905z"/>
	<path style="fill:#5E9C76;" d="M5.567,7.382c2.958,0.561,5.983,0.645,7.399,0.649l3.258,5.332   c-3.286-0.171-6.575-0.579-7.151-1.047C8.076,11.392,6.526,9.486,5.567,7.382 M4,6c0.808,2.995,3.112,5.861,4.392,7.049   c1.28,1.189,9.657,1.384,9.657,1.384l-4.524-7.405c0,0-0.156,0.003-0.436,0.003C11.737,7.032,7.493,6.95,4,6L4,6z"/>
</g>
<path style="fill:none;stroke:#5E9C76;stroke-linecap:round;stroke-linejoin:round;stroke-miterlimit:10;" d="M19.5,10.871  c0-4.002,0.212-8.376,5-10.371"/>
<g>
	<path style="fill:#BAE0BD;" d="M16.871,12.7c-2.214,0-4.42-1.517-4.805-1.793c-0.358-0.523-2.644-4.134-0.934-8.897   c3.521,4.525,7.979,7.074,9.494,7.94c0.04,0.023,0.079,0.045,0.115,0.065C19.859,11.798,18.56,12.7,16.871,12.7z"/>
	<path style="fill:#5E9C76;" d="M11.333,3.055c3.252,3.881,7.074,6.194,8.738,7.154c-0.78,1.338-1.833,1.992-3.2,1.992   c-1.953,0-3.937-1.295-4.439-1.647C12.037,9.941,10.313,6.969,11.333,3.055 M11,1c-2.577,5.791,0.705,10.262,0.705,10.262   s2.537,1.939,5.167,1.939c1.679,0,3.396-0.791,4.513-3.384C20.598,9.299,15.032,6.588,11,1L11,1z"/>
</g>
<g>
	<path style="fill:#BAE0BD;" d="M16.86,10.991c2.156-1.079,7.18-3.81,11.642-7.844c-0.249,3.077-2.173,8.928-3.097,11.011   L16.86,10.991z"/>
	<path style="fill:#5E9C76;" d="M27.833,4.399c-0.508,2.906-1.884,7.124-2.702,9.124l-7.025-2.604   C20.391,9.716,24.185,7.503,27.833,4.399 M29,2c-6.014,5.77-13.418,9.05-13.418,9.05l10.08,3.736C26.591,12.97,29.333,4.834,29,2   L29,2z"/>
</g>
<g>
	<ellipse style="fill:#F78F8F;" cx="32.5" cy="15" rx="5" ry="4.5"/>
	<path style="fill:#C74343;" d="M32.5,11c2.481,0,4.5,1.794,4.5,4c0,2.206-2.019,4-4.5,4S28,17.206,28,15   C28,12.794,30.019,11,32.5,11 M32.5,10c-3.038,0-5.5,2.239-5.5,5c0,2.761,2.462,5,5.5,5s5.5-2.239,5.5-5   C38,12.239,35.538,10,32.5,10L32.5,10z"/>
</g>
<g>
	<ellipse style="fill:#F78F8F;" cx="7.5" cy="15" rx="5" ry="4.5"/>
	<path style="fill:#C74343;" d="M7.5,11c2.481,0,4.5,1.794,4.5,4c0,2.206-2.019,4-4.5,4S3,17.206,3,15C3,12.794,5.019,11,7.5,11    M7.5,10C4.462,10,2,12.239,2,15c0,2.761,2.462,5,5.5,5s5.5-2.239,5.5-5C13,12.239,10.538,10,7.5,10L7.5,10z"/>
</g>
<g>
	<ellipse style="fill:#F78F8F;" cx="26.5" cy="14.5" rx="6" ry="5"/>
	<path style="fill:#C74343;" d="M26.5,10c3.033,0,5.5,2.019,5.5,4.5c0,2.481-2.467,4.5-5.5,4.5S21,16.981,21,14.5   C21,12.019,23.467,10,26.5,10 M26.5,9c-3.59,0-6.5,2.462-6.5,5.5s2.91,5.5,6.5,5.5s6.5-2.462,6.5-5.5S30.09,9,26.5,9L26.5,9z"/>
</g>
<g>
	<ellipse style="fill:#F78F8F;" cx="13.5" cy="14.5" rx="6" ry="5"/>
	<path style="fill:#C74343;" d="M13.5,10c3.033,0,5.5,2.019,5.5,4.5c0,2.481-2.467,4.5-5.5,4.5S8,16.981,8,14.5   C8,12.019,10.467,10,13.5,10 M13.5,9C9.91,9,7,11.462,7,14.5S9.91,20,13.5,20s6.5-2.462,6.5-5.5S17.09,9,13.5,9L13.5,9z"/>
</g>
<g>
	<ellipse style="fill:#F78F8F;" cx="20" cy="14.5" rx="6.5" ry="5"/>
	<path style="fill:#C74343;" d="M20,10c3.308,0,6,2.019,6,4.5c0,2.481-2.692,4.5-6,4.5s-6-2.019-6-4.5C14,12.019,16.692,10,20,10    M20,9c-3.866,0-7,2.462-7,5.5s3.134,5.5,7,5.5s7-2.462,7-5.5S23.866,9,20,9L20,9z"/>
</g>
</svg>