<?xml version="1.0" encoding="iso-8859-1"?><!-- Generator: Adobe Illustrator 20.0.0, SVG Export Plug-In . SVG Version: 6.00 Build 0)  --><svg xmlns="http://www.w3.org/2000/svg" xmlns:xlink="http://www.w3.org/1999/xlink" version="1.1" id="Layer_1" x="0px" y="0px" viewBox="0 0 40 40" style="enable-background:new 0 0 40 40;" xml:space="preserve" width="40" height="40">
<g>
	<path style="fill:#F78F8F;" d="M20,38.5c-10.201,0-18.5-7.707-18.5-17.18C1.5,14.104,4.71,5.5,20,5.5   c8.439,0,18.5,2.745,18.5,15.82C38.5,30.793,30.201,38.5,20,38.5z"/>
	<path style="fill:#C74343;" d="M20,6c11.944,0,18,5.154,18,15.32C38,30.517,29.925,38,20,38S2,30.517,2,21.32   C2,11.154,8.056,6,20,6 M20,5C9.507,5,1,9.061,1,21.32C1,31.084,9.507,39,20,39s19-7.916,19-17.68C39,9.061,30.493,5,20,5L20,5z"/>
</g>
<g>
	<path style="fill:#BAE0BD;" d="M21.519,16.554c-2.205-0.895-3.208-2.813-2.982-5.707l0.077-0.981l-0.838,0.517   c-1.826,1.127-3.589,1.364-4.745,1.364c-0.581,0-1.059-0.059-1.388-0.115c0.378-1.07,1.46-3.54,3.512-4.011l1.512-0.348   l-1.431-0.601c-1.544-0.648-2.604-1.624-2.724-4.169c2.842,0.033,4.438,0.4,6.11,2.715L19.187,6L19.5,5.087   c0.754-2.194,1.716-3.263,2.047-3.584c0.362,0.019,1.037,0.126,1.718,0.644c-0.904,1.475-1.261,2.801-1.276,2.86l-0.381,1.442   l1.173-0.921l0.189-0.155c0.63-0.524,2.052-1.707,4.509-1.857c-0.177,2.046-1.38,3.122-2.12,3.596l-1.081,0.691l1.265,0.222   c1.773,0.312,2.935,1.552,3.36,2.697c-0.338,0.132-0.8,0.199-1.378,0.199l0,0c-1.417,0-3.133-0.399-4.268-0.663l-1.061-0.247   l0.432,0.948C23.408,12.451,22.959,14.665,21.519,16.554z"/>
	<path style="fill:#5E9C76;" d="M21.741,2.019c0.217,0.031,0.52,0.107,0.851,0.286c-0.763,1.364-1.072,2.518-1.087,2.576   l-0.758,2.882l2.343-1.841c0.056-0.044,0.123-0.099,0.2-0.164c0.536-0.446,1.68-1.399,3.599-1.679   c-0.313,1.446-1.218,2.238-1.8,2.611l-2.162,1.384l2.528,0.444c1.312,0.23,2.244,1.025,2.735,1.864   c-0.181,0.024-0.401,0.039-0.667,0.039c-1.359,0-3.04-0.391-4.152-0.65l-0.073-0.017L21.176,9.26l1.009,1.931   c0.649,1.242,0.31,3.082-0.832,4.74c-1.733-0.867-2.512-2.561-2.319-5.045l0.153-1.962l-1.675,1.033   c-1.727,1.066-3.391,1.289-4.484,1.289c-0.253,0-0.485-0.012-0.691-0.03c0.471-1.11,1.41-2.76,2.928-3.109l3.025-0.695L15.429,6.21   c-1.29-0.542-2.158-1.302-2.376-3.194c2.562,0.089,3.788,0.59,5.163,2.494l1.13,1.564l0.626-1.825   C20.599,3.425,21.367,2.429,21.741,2.019 M21.468,0.997c-0.072,0-0.111,0.004-0.111,0.004s-1.338,1.034-2.33,3.924   C17.159,2.339,15.362,2,12,2c0,2.935,1.045,4.294,3.042,5.132C12.086,7.812,11,12,11,12s0.796,0.246,2.029,0.246   c1.317,0,3.132-0.28,5.009-1.438c-0.24,3.076,0.879,5.393,3.646,6.342c1.747-2.107,2.306-4.664,1.387-6.422   c1.123,0.261,2.946,0.693,4.452,0.693c0.798,0,1.507-0.121,1.977-0.453c-0.317-1.318-1.595-3.036-3.872-3.435   C26.627,6.893,28,5.495,28,3c-3.251,0-4.969,1.696-5.528,2.135c0,0,0.399-1.518,1.448-3.085   C22.911,1.081,21.814,0.997,21.468,0.997L21.468,0.997z"/>
</g>
</svg>