<?xml version="1.0" encoding="iso-8859-1"?><!-- Generator: Adobe Illustrator 20.0.0, SVG Export Plug-In . SVG Version: 6.00 Build 0)  --><svg xmlns="http://www.w3.org/2000/svg" xmlns:xlink="http://www.w3.org/1999/xlink" version="1.1" id="Layer_1" x="0px" y="0px" viewBox="0 0 40 40" style="enable-background:new 0 0 40 40;" xml:space="preserve" width="40" height="40">
<g>
	<path style="fill:#F5CE85;" d="M16.661,1.504C31.539,1.73,34.654,12.107,35.835,16.041c0.314,1.047,0.444,1.481,0.765,1.668   c1.208,0.705,1.9,1.523,1.9,2.247c0,0.595-0.763,1.618-1.774,2.379c-0.3,0.225-0.38,0.672-0.554,1.652   c-0.699,3.931-2.546,14.311-19.689,14.509L16.661,1.504z"/>
	<g>
		<path style="fill:#967A44;" d="M17.159,2.016c14.077,0.448,17.059,10.377,18.198,14.169c0.355,1.181,0.501,1.67,0.992,1.956    C37.566,18.852,38,19.544,38,19.956c0,0.376-0.647,1.282-1.575,1.979c-0.458,0.344-0.554,0.885-0.746,1.964    c-0.672,3.78-2.436,13.696-18.694,14.088L17.159,2.016 M16.164,1l-0.183,38c21.456,0,20.15-15.593,21.045-16.265    C37.952,22.038,39,20.869,39,19.956c0-0.913-0.757-1.867-2.148-2.679C35.948,16.75,34.963,1,16.164,1L16.164,1z"/>
	</g>
</g>
<g>
	<path style="fill:#F2D75C;" d="M16,38.5C8.005,38.5,1.5,30.201,1.5,20S8.005,1.5,16,1.5S30.5,9.799,30.5,20S23.995,38.5,16,38.5z"/>
	<path style="fill:#BA9B48;" d="M16,2c7.72,0,14,8.075,14,18s-6.28,18-14,18S2,29.925,2,20S8.28,2,16,2 M16,1C7.716,1,1,9.505,1,20   s6.716,19,15,19c8.285,0,15-8.505,15-19S24.285,1,16,1L16,1z"/>
</g>
<g>
	<path style="fill:#FFF5C4;" d="M15.948,16.479l4.208-10.38c-2.874-1.591-6.02-1.414-8.721,0.243L15.948,16.479z"/>
</g>
<g>
	<path style="fill:#FFF5C4;" d="M18.22,18.176l8.715-0.237c-0.41-3.977-1.978-7.683-4.508-10.131L18.22,18.176z"/>
</g>
<g>
	<path style="fill:#FFF5C4;" d="M22.786,31.843c1.154-1.218,2.144-2.755,2.893-4.597c0.747-1.853,1.18-3.813,1.319-5.789   l-8.73,0.239L22.786,31.843z"/>
</g>
<g>
	<path style="fill:#FFF5C4;" d="M16.053,23.522l-4.21,10.372c2.876,1.599,6.02,1.407,8.716-0.236L16.053,23.522z"/>
</g>
<g>
	<path style="fill:#FFF5C4;" d="M9.214,8.153c-1.156,1.209-2.149,2.751-2.896,4.604c-0.751,1.847-1.178,3.806-1.32,5.783   l8.728-0.243L9.214,8.153z"/>
</g>
<g>
	<path style="fill:#FFF5C4;" d="M13.778,21.82l-8.716,0.243c0.41,3.974,1.98,7.683,4.506,10.133L13.778,21.82z"/>
</g>
</svg>