<?xml version="1.0" encoding="iso-8859-1"?><!-- Generator: Adobe Illustrator 20.0.0, SVG Export Plug-In . SVG Version: 6.00 Build 0)  --><svg xmlns="http://www.w3.org/2000/svg" xmlns:xlink="http://www.w3.org/1999/xlink" version="1.1" id="Layer_1" x="0px" y="0px" viewBox="0 0 40 40" style="enable-background:new 0 0 40 40;" xml:space="preserve" width="40" height="40">
<g>
	<path style="fill:#BAE0BD;" d="M18.159,7.42c-1.254,0-2.619-0.487-3.744-1.335c-1.885-1.423-1.966-3.644-1.907-4.572   c0.899,0.048,2.774,0.279,4.475,1.343c1.407,0.88,2.179,2.765,2.463,4.364C19.061,7.352,18.623,7.42,18.159,7.42L18.159,7.42z"/>
	<path style="fill:#5E9C76;" d="M12.997,2.05c0.915,0.099,2.377,0.389,3.72,1.229c1.144,0.715,1.828,2.201,2.144,3.577   C18.64,6.899,18.404,6.92,18.159,6.92c-1.148,0-2.403-0.45-3.443-1.235C13.303,4.619,13.021,3.031,12.997,2.05 M12.155,1   c-0.062,0-0.094,0.001-0.094,0.001s-0.613,3.471,2.052,5.482c1.259,0.95,2.734,1.437,4.045,1.437c0.674,0,1.305-0.128,1.841-0.388   c-0.225-1.689-1.018-4.016-2.752-5.1C15.077,1.074,12.658,1,12.155,1L12.155,1z"/>
</g>
<path style="fill:none;stroke:#7A4F34;stroke-linecap:round;stroke-miterlimit:10;" d="M22.5,1.5c0,0-3.022,1.014-3.022,9.269"/>
<g>
	<circle style="fill:#DCD5F2;" cx="20" cy="35" r="3.5"/>
	<path style="fill:#8B75A1;" d="M20,32c1.654,0,3,1.346,3,3s-1.346,3-3,3s-3-1.346-3-3S18.346,32,20,32 M20,31c-2.209,0-4,1.791-4,4   s1.791,4,4,4s4-1.791,4-4S22.209,31,20,31L20,31z"/>
</g>
<g>
	<circle style="fill:#DCD5F2;" cx="20" cy="23" r="3.5"/>
	<path style="fill:#8B75A1;" d="M20,20c1.654,0,3,1.346,3,3s-1.346,3-3,3s-3-1.346-3-3S18.346,20,20,20 M20,19c-2.209,0-4,1.791-4,4   s1.791,4,4,4s4-1.791,4-4S22.209,19,20,19L20,19z"/>
</g>
<g>
	<circle style="fill:#DCD5F2;" cx="12" cy="23" r="3.5"/>
	<path style="fill:#8B75A1;" d="M12,20c1.654,0,3,1.346,3,3s-1.346,3-3,3s-3-1.346-3-3S10.346,20,12,20 M12,19c-2.209,0-4,1.791-4,4   s1.791,4,4,4s4-1.791,4-4S14.209,19,12,19L12,19z"/>
</g>
<g>
	<circle style="fill:#DCD5F2;" cx="28" cy="23" r="3.5"/>
	<path style="fill:#8B75A1;" d="M28,20c1.654,0,3,1.346,3,3s-1.346,3-3,3s-3-1.346-3-3S26.346,20,28,20 M28,19c-2.209,0-4,1.791-4,4   s1.791,4,4,4s4-1.791,4-4S30.209,19,28,19L28,19z"/>
</g>
<g>
	<circle style="fill:#DCD5F2;" cx="20" cy="11" r="3.5"/>
	<path style="fill:#8B75A1;" d="M20,8c1.654,0,3,1.346,3,3s-1.346,3-3,3s-3-1.346-3-3S18.346,8,20,8 M20,7c-2.209,0-4,1.791-4,4   s1.791,4,4,4s4-1.791,4-4S22.209,7,20,7L20,7z"/>
</g>
<g>
	<circle style="fill:#DCD5F2;" cx="12" cy="11" r="3.5"/>
	<path style="fill:#8B75A1;" d="M12,8c1.654,0,3,1.346,3,3s-1.346,3-3,3s-3-1.346-3-3S10.346,8,12,8 M12,7c-2.209,0-4,1.791-4,4   s1.791,4,4,4s4-1.791,4-4S14.209,7,12,7L12,7z"/>
</g>
<g>
	<circle style="fill:#DCD5F2;" cx="28" cy="11" r="3.5"/>
	<path style="fill:#8B75A1;" d="M28,8c1.654,0,3,1.346,3,3s-1.346,3-3,3s-3-1.346-3-3S26.346,8,28,8 M28,7c-2.209,0-4,1.791-4,4   s1.791,4,4,4s4-1.791,4-4S30.209,7,28,7L28,7z"/>
</g>
<g>
	<circle style="fill:#DCD5F2;" cx="24" cy="29" r="3.5"/>
	<path style="fill:#8B75A1;" d="M24,26c1.654,0,3,1.346,3,3s-1.346,3-3,3s-3-1.346-3-3S22.346,26,24,26 M24,25c-2.209,0-4,1.791-4,4   s1.791,4,4,4s4-1.791,4-4S26.209,25,24,25L24,25z"/>
</g>
<g>
	<circle style="fill:#DCD5F2;" cx="16" cy="29" r="3.5"/>
	<path style="fill:#8B75A1;" d="M16,26c1.654,0,3,1.346,3,3s-1.346,3-3,3s-3-1.346-3-3S14.346,26,16,26 M16,25c-2.209,0-4,1.791-4,4   s1.791,4,4,4s4-1.791,4-4S18.209,25,16,25L16,25z"/>
</g>
<g>
	<circle style="fill:#DCD5F2;" cx="24" cy="17" r="3.5"/>
	<path style="fill:#8B75A1;" d="M24,14c1.654,0,3,1.346,3,3s-1.346,3-3,3s-3-1.346-3-3S22.346,14,24,14 M24,13c-2.209,0-4,1.791-4,4   s1.791,4,4,4s4-1.791,4-4S26.209,13,24,13L24,13z"/>
</g>
<g>
	<circle style="fill:#DCD5F2;" cx="16" cy="17" r="3.5"/>
	<path style="fill:#8B75A1;" d="M16,14c1.654,0,3,1.346,3,3s-1.346,3-3,3s-3-1.346-3-3S14.346,14,16,14 M16,13c-2.209,0-4,1.791-4,4   s1.791,4,4,4s4-1.791,4-4S18.209,13,16,13L16,13z"/>
</g>
<g>
	<circle style="fill:#DCD5F2;" cx="8" cy="17" r="3.5"/>
	<path style="fill:#8B75A1;" d="M8,14c1.654,0,3,1.346,3,3s-1.346,3-3,3s-3-1.346-3-3S6.346,14,8,14 M8,13c-2.209,0-4,1.791-4,4   s1.791,4,4,4s4-1.791,4-4S10.209,13,8,13L8,13z"/>
</g>
<g>
	<circle style="fill:#DCD5F2;" cx="32" cy="17" r="3.5"/>
	<path style="fill:#8B75A1;" d="M32,14c1.654,0,3,1.346,3,3s-1.346,3-3,3s-3-1.346-3-3S30.346,14,32,14 M32,13c-2.209,0-4,1.791-4,4   s1.791,4,4,4s4-1.791,4-4S34.209,13,32,13L32,13z"/>
</g>
</svg>