<?xml version="1.0" encoding="iso-8859-1"?><!-- Generator: Adobe Illustrator 20.0.0, SVG Export Plug-In . SVG Version: 6.00 Build 0)  --><svg xmlns="http://www.w3.org/2000/svg" xmlns:xlink="http://www.w3.org/1999/xlink" version="1.1" id="Layer_1" x="0px" y="0px" viewBox="0 0 40 40" style="enable-background:new 0 0 40 40;" xml:space="preserve" width="40" height="40">
<g>
	<path style="fill:#FFEEA3;" d="M5.784,38.497c-0.454,0-1.707-0.371-2.456-0.719l-0.77-1.257c0.179-0.628,0.827-2.596,1.5-3.717   c3.941-3.343,6.785-4.465,9.534-5.551c2.425-0.958,4.716-1.862,7.454-4.193c4.647-3.957,5.505-8.248,5.966-10.553   c0.067-0.333,0.125-0.625,0.186-0.865c0.33-1.307,1.015-2.162,1.516-2.786c0.267-0.333,0.485-0.605,0.596-0.878   c0.298-0.095,0.572-0.208,0.822-0.311c0.424-0.175,0.791-0.326,1.108-0.326c0.237,0,0.444,0.085,0.671,0.276   c0.105,0.088,0.292,0.205,0.538,0.354c1.212,0.737,4.051,2.462,4.051,6.485c0,1.906-0.606,8.646-8.401,15.33   C18.671,37.872,8.934,38.5,6.174,38.5L5.784,38.497z"/>
	<g>
		<path style="fill:#BA9B48;" d="M31.24,7.842L31.24,7.842c0.056,0,0.161,0,0.35,0.159c0.151,0.126,0.339,0.241,0.6,0.399    C33.427,9.152,36,10.716,36,14.457c0,1.852-0.593,8.405-8.227,14.951C18.476,37.38,8.89,38,6.174,38L5.89,37.998l-0.106-0.001    c-0.299,0-1.365-0.288-2.11-0.612l-0.583-0.952c0.232-0.714,0.786-2.323,1.355-3.302c3.845-3.247,6.633-4.348,9.33-5.413    c2.465-0.973,4.793-1.893,7.594-4.277c4.78-4.07,5.66-8.471,6.133-10.836c0.065-0.324,0.121-0.606,0.18-0.84    c0.303-1.201,0.923-1.974,1.421-2.596c0.216-0.27,0.418-0.522,0.563-0.783c0.236-0.083,0.453-0.173,0.655-0.256    C30.681,7.982,31.021,7.842,31.24,7.842 M31.24,6.842c-0.709,0-1.427,0.501-2.354,0.738c0.034,0.624-1.586,1.615-2.173,3.94    c-0.475,1.883-0.792,6.733-5.991,11.16c-5.742,4.889-9.494,3.363-17.049,9.795c-0.708,1.143-1.379,3.16-1.599,3.851    c-0.049,0.154-0.027,0.318,0.057,0.456l0.847,1.382c0.758,0.381,2.221,0.833,2.806,0.833c0.062,0,0.194,0.003,0.39,0.003    c2.189,0,12.355-0.348,22.25-8.833C35.047,24.489,37,18.363,37,14.457c0-5.037-4.132-6.69-4.767-7.223    C31.891,6.948,31.566,6.842,31.24,6.842L31.24,6.842z"/>
	</g>
</g>
<path style="fill:#F2D75C;" d="M27.773,29.408C18.476,37.38,8.89,38,6.174,38L5.89,37.998l-0.106-0.001  c-0.299,0-1.365-0.288-2.11-0.612l-0.583-0.952c4.326-0.933,17.534-6.11,20.243-8.599c9.25-8.5,8.596-19.592,8.856-19.433  C33.427,9.152,36,10.716,36,14.457C36,16.31,35.407,22.863,27.773,29.408z"/>
<line style="fill:none;stroke:#7A4F34;stroke-linecap:round;stroke-miterlimit:10;" x1="2.481" y1="36.388" x2="3.395" y2="37.894"/>
<g>
	<path style="fill:#CEE0A1;" d="M31.488,12.89c-1.275-1.69-3.025-2.289-3.913-2.493c0.212-0.552,0.677-1.195,1.01-1.655   c0.42-0.581,0.606-0.85,0.606-1.137c0-2.154-1.262-4.287-1.901-5.23c0.547-0.251,1.45-0.624,2.33-0.805   c0.297,1.141,1.158,4.088,2.436,5.406c0.139,0.144,0.36,0.323,0.635,0.542c0.752,0.6,1.958,1.562,2.744,3.043   C34.492,10.816,32.713,11.46,31.488,12.89z"/>
	<g>
		<path style="fill:#5E9C76;" d="M29.263,2.169c0.389,1.392,1.219,3.901,2.434,5.154c0.173,0.178,0.398,0.358,0.682,0.585    c0.665,0.53,1.593,1.272,2.305,2.362c-0.918,0.315-2.156,0.884-3.171,1.866c-1.055-1.174-2.315-1.765-3.225-2.058    c0.217-0.371,0.498-0.76,0.703-1.043c0.437-0.604,0.701-0.969,0.701-1.43c0-1.952-0.964-3.871-1.663-5.006    C28.393,2.449,28.823,2.291,29.263,2.169 M29.995,1c-1.614,0.203-3.457,1.185-3.457,1.185s2.154,2.737,2.154,5.42    c0,0.37-1.628,1.995-1.725,3.191c0,0,2.911,0.281,4.499,2.957c1.501-2.323,4.688-2.844,4.688-2.844    c-1.035-2.459-3.162-3.687-3.739-4.282C30.926,5.091,29.995,1,29.995,1L29.995,1z"/>
	</g>
</g>
</svg>